<?xml version="1.0" encoding="UTF-8" standalone="no"?>
<!-- Created with Inkscape (http://www.inkscape.org/) -->

<svg
   xmlns:dc="http://purl.org/dc/elements/1.1/"
   xmlns:cc="http://creativecommons.org/ns#"
   xmlns:rdf="http://www.w3.org/1999/02/22-rdf-syntax-ns#"
   xmlns:svg="http://www.w3.org/2000/svg"
   xmlns="http://www.w3.org/2000/svg"
   xmlns:sodipodi="http://sodipodi.sourceforge.net/DTD/sodipodi-0.dtd"
   xmlns:inkscape="http://www.inkscape.org/namespaces/inkscape"
   width="512"
   height="512"
   id="svg3000"
   version="1.1"
   inkscape:version="0.48.4 r9939"
   sodipodi:docname="512x512.svg"
   inkscape:export-filename="C:\Projects\Eskom - Load Shedding\512x512.png"
   inkscape:export-xdpi="90"
   inkscape:export-ydpi="90">
  <defs
     id="defs3002" />
  <sodipodi:namedview
     id="base"
     pagecolor="#ffffff"
     bordercolor="#666666"
     borderopacity="1.0"
     inkscape:pageopacity="0.0"
     inkscape:pageshadow="2"
     inkscape:zoom="1"
     inkscape:cx="279.83238"
     inkscape:cy="240"
     inkscape:document-units="px"
     inkscape:current-layer="layer1"
     showgrid="false"
     inkscape:window-width="699"
     inkscape:window-height="753"
     inkscape:window-x="886"
     inkscape:window-y="-6"
     inkscape:window-maximized="0" />
  <metadata
     id="metadata3005">
    <rdf:RDF>
      <cc:Work
         rdf:about="">
        <dc:format>image/svg+xml</dc:format>
        <dc:type
           rdf:resource="http://purl.org/dc/dcmitype/StillImage" />
        <dc:title></dc:title>
      </cc:Work>
    </rdf:RDF>
  </metadata>
  <g
     inkscape:label="Layer 1"
     inkscape:groupmode="layer"
     id="layer1"
     transform="translate(0,-540.36218)">
    <g
       style="fill:#214478;fill-rule:evenodd;stroke-width:0;stroke-linecap:butt;stroke-linejoin:miter;stroke-miterlimit:2.61310004999999990"
       id="g1883"
       transform="matrix(10.61943,0,0,10.217578,-111.30871,-6319.1994)">
      <path
         d="m 25.9063,683.121 c -3.8711,2.793 -6.375,7.363 -6.375,12.5 0,8.5 6.8867,15.387 15.3867,15.387 0.1406,0 0.2851,0 0.4297,-0.004 l -9.0039,-13.406 c -0.3047,-0.391 -0.4922,-0.879 -0.4922,-1.414 0,-1.254 1.0195,-2.27 2.2734,-2.27 l 11.75,0 -10.7461,-16.031 c 1.8242,-0.598 3.7617,-0.922 5.7891,-0.922 10.3047,0 18.6601,8.355 18.6601,18.66 0,7.375 -4.2773,13.75 -10.4843,16.781 l -8.793,-12.922 1.0156,0 10.6211,0 c -0.0078,1.778 -1.4375,3.208 -3.2031,3.208 l -2.1446,0.003 c -0.1796,0 -0.3867,-0.089 -0.5117,-0.148 0.125,0.07 0.3203,0.191 0.4219,0.328 l 3.5352,5.145 c 3.8046,-2.801 6.2695,-7.309 6.2695,-12.395 0,-8.496 -6.8906,-15.387 -15.3867,-15.387 -0.0977,0 -0.1953,0 -0.2891,0.004 l 8.9453,13.344 c 0.0196,0.031 0.0391,0.063 0.0586,0.09 0.2227,0.351 0.3555,0.769 0.3555,1.219 0,1.254 -1.0195,2.269 -2.2735,2.269 -0.0351,0 -0.0742,0 -0.1093,0 l -11.6641,0 10.8828,16.168 c -1.8594,0.617 -3.8437,0.953 -5.9062,0.953 -10.3047,0 -18.6602,-8.351 -18.6602,-18.66 0,-7.43 4.3399,-13.844 10.625,-16.848 l 8.6485,12.786 -1.0118,0 -10.6211,0 c 0.0079,-1.778 1.4375,-3.207 3.1993,-3.207 l 2.1484,-0.004 c 0.1797,0.004 0.3828,0.089 0.5078,0.152 -0.1211,-0.07 -0.3164,-0.195 -0.418,-0.328 l -3.4296,-5.051 z"
         style="fill:#214478"
         id="path1885"
         inkscape:connector-curvature="0" />
    </g>
  </g>
</svg>
