<?xml version="1.0"?><svg width="437.5" height="437.5" xmlns="http://www.w3.org/2000/svg">
 <title>Colombia flag butterfly</title>

 <g>
  <title>Layer 1</title>
  <path fill="#ff7f00" fill-rule="evenodd" id="path625" d="m-2.21127,249.503204c61.94378,11.037018 176.968671,28.467896 197.368573,2.597198c20.400101,-25.870895 14.449951,-45.24649 -53.493805,-110.2836c-67.943756,-65.037102 -103.968628,-118.467802 -212.368637,-24.597c-108.399994,93.870804 6.550087,121.246384 68.493869,132.283401z"/>
  <path fill="#ff7f00" fill-rule="evenodd" id="path626" d="m94.609337,346.490692c-30.168556,54.681 78.566826,75.420593 122.110817,28.036957c43.543976,-47.383636 10.568726,-80.841431 6.445099,-113.007019c-4.123306,-32.165939 -27.12854,-44.718674 -51.383072,-28.037262c-24.254745,16.681107 -47.00428,58.326324 -77.172844,113.007324z"/>
  <path transform="rotate(-50.3893, 317.205, 233.533)" id="svg_37" fill="#ff7f00" fill-rule="evenodd" d="m391.676453,265.759857c32.284637,53.429779 -84.077423,73.694824 -130.675537,27.395416c-46.59816,-46.299423 -11.310013,-78.991638 -6.897186,-110.421234c4.412598,-31.429901 29.031372,-43.695404 54.987122,-27.395706c25.955933,16.299408 50.301117,56.991714 82.585602,110.421524z"/>
  <path transform="rotate(108.553, 232.793, 43.1719)" id="svg_39" fill="#ff7f00" fill-rule="evenodd" d="m184.337814,-37.206219c63.538071,-10.631321 181.523544,-27.421482 202.448502,-2.501732c20.92514,24.919921 14.821869,43.583331 -54.870636,106.229824c-69.692535,62.646492 -106.644684,114.113182 -217.834686,23.692879c-111.190014,-90.420342 6.718704,-116.789661 70.256821,-127.420982l0,0.000011z"/>
  <path transform="rotate(6.38653, 193.93, 75.1699)" fill="#000000" id="path628" d="m188.355988,155.692627c0.576538,-14.232666 2.473053,-28.709839 1.345627,-42.81218c-1.777222,-23.373985 -10.954651,-90.339638 7.473892,-113.833957c-0.086319,-5.7684 4.852051,-5.86274 4.835373,-0.26869c-17.990906,24.262809 -9.023468,89.65764 -7.247818,112.660501c1.404984,14.754257 3.075638,29.472389 4.318085,44.254326l-10.725159,0z"/>
  <path transform="rotate(-0.734303, 103.598, 138.604)" fill="#000000" id="path629" d="m190.729004,163.977005c-14.689011,-5.220001 -31.488007,-9.778 -43.63501,-15.923004c-20.262993,-10.132996 -72.525093,-41.504997 -121.541393,-40.106003c-5.499901,-2.298996 -12.590701,0.494003 -7.1147,2.666c49.1451,-0.848999 100.174099,29.790009 120.077099,39.778c12.389999,6.557999 24.367004,13.255005 37.014008,19.731003l15.199997,-6.145996l0,0l0,0l0,0z"/>
  <path fill="#000000" fill-rule="evenodd" id="path627" d="m227.1035,211.506897c19.171799,35.072998 28.831894,66.365692 21.576401,69.894104c-7.255295,3.528412 -28.678894,-22.043488 -47.850601,-57.116394c-19.171799,-35.073013 -28.831894,-66.365601 -21.576599,-69.894104c7.255493,-3.528397 28.679092,22.043594 47.8508,57.116394z"/>
 </g>
</svg>