<?xml version="1.0" encoding="UTF-8" standalone="no"?>
<svg
   xmlns:dc="http://purl.org/dc/elements/1.1/"
   xmlns:cc="http://creativecommons.org/ns#"
   xmlns:rdf="http://www.w3.org/1999/02/22-rdf-syntax-ns#"
   xmlns:svg="http://www.w3.org/2000/svg"
   xmlns="http://www.w3.org/2000/svg"
   xmlns:sodipodi="http://sodipodi.sourceforge.net/DTD/sodipodi-0.dtd"
   xmlns:inkscape="http://www.inkscape.org/namespaces/inkscape"
   width="237.52196"
   height="244.55246"
   id="svg2"
   version="1.1"
   inkscape:version="0.48.4 r9939"
   sodipodi:docname="grey_flower.svg">
  <defs
     id="defs28" />
  <sodipodi:namedview
     pagecolor="#ffffff"
     bordercolor="#666666"
     borderopacity="1"
     objecttolerance="10"
     gridtolerance="10"
     guidetolerance="10"
     inkscape:pageopacity="0"
     inkscape:pageshadow="2"
     inkscape:window-width="640"
     inkscape:window-height="480"
     id="namedview26"
     showgrid="false"
     inkscape:zoom="0.96502812"
     inkscape:cx="118.76098"
     inkscape:cy="122.27623"
     inkscape:window-x="751"
     inkscape:window-y="192"
     inkscape:window-maximized="0"
     inkscape:current-layer="svg2" />
  <metadata
     id="metadata7">image/svg+xml<rdf:RDF>
  <cc:Work
     rdf:about="">
    <dc:format>image/svg+xml</dc:format>
    <dc:type
       rdf:resource="http://purl.org/dc/dcmitype/StillImage" />
  </cc:Work>
</rdf:RDF>
</metadata>
  <path
     style="fill:#999999;fill-rule:evenodd;stroke-width:1px"
     inkscape:connector-curvature="0"
     d="M 105.08673,97.600677 C 102.70337,87.698272 97.315155,71.159545 93.206238,58.832733 92.643067,57.14328 91.955658,55.497864 91.330353,53.830414 88.924286,47.414215 88.497895,40.624726 86.953339,34.446442 c -1.07251,-4.290009 0.461365,-9.594849 1.875854,-13.131073 2.684418,-6.71109 5.310822,-10.938446 10.004639,-15.632263 2.705318,-2.705292 5.652068,-3.914154 10.004608,-5.002289 3.82697,-0.956757 8.30191,-0.625305 12.5058,-0.625305 4.20346,0 10.00482,7.503693 12.5058,10.004639 3.10351,3.103485 4.6788,3.730011 6.87817,8.128754 2.10602,4.212036 1.36707,9.21994 2.50116,13.756378 0.80246,3.209839 0,7.912048 0,11.255219 0,4.639954 -1.38654,9.297852 -2.50116,13.756348 -1.13873,4.554962 -1.40643,8.752289 -2.50116,13.131104 -0.93478,3.739166 -1.57669,6.932037 -2.50116,10.629913 -0.93796,3.751801 -2.34756,4.695129 -3.75174,7.503479 -1.36795,2.735901 -1.82575,6.052399 -2.50116,8.754059 -0.79373,3.175015 -4.23224,3.679355 -6.87817,5.002285 -2.14203,1.07105 -7.3342,-0.27032 -8.75403,-0.62527 -2.58518,-0.6463 -5.82126,-2.578614 -8.75406,-3.751741 z"
     id="path2172" />
  <path
     style="fill:#808080;fill-rule:evenodd;stroke-width:1px"
     inkscape:connector-curvature="0"
     d="m 113.80542,95.49939 c -1.57275,-9.358124 -5.12833,-24.987762 -7.83978,-36.637054 -0.37162,-1.596588 -0.82523,-3.151581 -1.23786,-4.727386 -1.58773,-6.063507 -1.86908,-12.479828 -2.88833,-18.318512 -0.70774,-4.054199 0.30444,-9.067444 1.23785,-12.409302 1.77142,-6.342224 3.50455,-10.337219 6.60193,-14.77301 1.78519,-2.556641 3.72971,-3.699036 6.6019,-4.727356 2.52536,-0.904175 5.4783,-0.590912 8.25238,-0.590912 2.7738,0 6.60205,7.091217 8.25238,9.454681 2.04794,2.932922 3.08746,3.525024 4.53882,7.681976 1.3897,3.98053 0.9021,8.713165 1.65045,13.000244 0.52954,3.033417 0,7.477173 0,10.636566 0,4.384949 -0.91495,8.786804 -1.65045,13.000244 -0.75147,4.304596 -0.92811,8.271179 -1.65049,12.409332 -0.61685,3.53363 -1.04046,6.551025 -1.65048,10.045654 -0.61893,3.545593 -1.54913,4.437042 -2.47571,7.091034 -0.90268,2.58551 -1.2048,5.719757 -1.65048,8.272888 -0.52377,3.000488 -2.79281,3.477112 -4.53882,4.727356 -1.41351,1.012147 -4.83972,-0.255463 -5.77664,-0.590912 -1.70593,-0.610779 -3.84137,-2.43689 -5.77667,-3.545532 z"
     id="path3146" />
  <path
     style="fill:#999999;fill-rule:evenodd;stroke-width:1px"
     inkscape:connector-curvature="0"
     d="M 90.966522,113.75632 C 82.556701,108.01065 67.466858,99.358551 56.151001,92.972198 54.600128,92.096954 52.986572,91.337677 51.404358,90.520385 45.316071,87.375579 40.445709,82.626006 35.155975,79.079803 31.48294,76.617401 29.062317,71.654083 27.73941,68.08258 25.228851,61.304534 24.341217,56.407531 24.674041,49.777862 c 0.191833,-3.821106 1.566528,-6.694244 4.064789,-10.420807 2.196625,-3.276581 5.737854,-6.032379 8.855774,-8.852173 3.117584,-2.819519 12.453491,-1.145599 15.985931,-0.968262 4.383484,0.220062 5.972107,-0.371918 10.553833,1.415222 4.387238,1.711304 7.198303,5.921204 11.082306,8.525024 2.748199,1.842407 5.307098,5.868164 7.549561,8.347687 3.112305,3.441345 5.208313,7.825989 7.372223,11.880371 2.210724,4.14212 4.827576,7.434723 6.95282,11.416656 1.814758,3.400269 3.480352,6.198883 5.275112,9.561584 1.82093,3.411774 1.40818,5.056915 2.25046,8.081665 0.82059,2.946686 2.70566,5.713562 4.01688,8.170319 1.54098,2.887238 -0.67096,5.567692 -1.746,8.323702 -0.87027,2.23117 -5.62088,4.71902 -6.912052,5.40814 -2.350861,1.2547 -6.047089,1.99219 -9.009155,3.08933 z"
     id="path4123" />
  <path
     style="fill:#e6e6e6;fill-rule:evenodd;stroke-width:1px"
     inkscape:connector-curvature="0"
     d="M 96.023468,106.34967 C 88.579926,100.46396 75.459076,91.256836 65.634155,84.435638 64.287628,83.500763 62.908142,82.651733 61.545135,81.759765 56.300354,78.327606 51.787872,73.757537 47.11557,70.110839 43.871216,67.578673 41.259247,63.181548 39.7099,60.076873 36.769623,54.184844 35.375336,50.059356 34.697205,44.691833 c -0.390869,-3.093628 0.285065,-5.245209 1.725494,-7.934448 1.26651,-2.364502 3.666748,-4.112885 5.724213,-5.973663 2.057251,-1.860565 9.653076,0.830963 12.462402,1.476898 3.486206,0.801575 4.654327,0.543427 8.519104,2.653015 3.700684,2.020081 6.51355,5.857239 9.944183,8.534882 2.427429,1.894592 5.015411,5.545593 7.134613,7.888824 2.941254,3.252197 5.215271,7.130646 7.495972,10.748993 2.330017,3.696625 4.85965,6.75705 7.099609,10.31073 1.91272,3.034576 3.622498,5.55661 5.514125,8.557648 1.91922,3.04483 1.82728,4.329956 2.92023,6.91983 1.06479,2.523102 2.94306,5.050323 4.32504,7.242859 1.62415,2.576721 0.26096,4.452179 -0.19537,6.550629 -0.36945,1.69879 -3.76083,3.05682 -4.68076,3.43649 -1.67492,0.69129 -4.483577,0.76926 -6.662593,1.24515 z"
     id="path4125" />
  <path
     style="fill:#999999;fill-rule:evenodd;stroke-width:1px"
     inkscape:connector-curvature="0"
     d="m 97.57196,134.88596 c -9.908569,2.3576 -26.461212,7.70278 -38.798706,11.77966 -1.690887,0.55874 -3.338104,1.24191 -5.007172,1.86285 -6.422455,2.38938 -13.213013,2.79813 -19.395294,4.32663 -4.292786,1.06134 -9.593628,-0.48633 -13.12616,-1.91003 -6.704071,-2.70184 -10.924591,-5.33923 -15.606171,-10.04523 -2.698273,-2.71234 -3.89946,-5.66223 -4.976273,-10.01761 -0.946793,-3.82943 -0.603699,-8.30349 -0.592773,-12.50735 0.010925,-4.20346 7.529648,-9.98529 10.037109,-12.47974 3.111557,-3.09543 3.742172,-4.6691 8.146622,-6.857054 4.217499,-2.095032 9.22345,-1.343048 13.762817,-2.465363 3.211914,-0.794098 7.912048,0.02057 11.255188,0.02927 4.639954,0.01208 9.29422,1.410706 13.749817,2.536896 4.551971,1.150601 8.748566,1.429221 13.124542,2.535301 3.736694,0.94452 6.927887,1.5947 10.623352,2.52878 3.74939,0.94772 4.689026,2.35977 7.493713,3.77124 2.73233,1.37506 6.047638,1.84149 8.747498,2.52393 3.172971,0.802 3.668361,4.24179 4.984431,6.89117 1.06546,2.14481 -0.28939,7.33344 -0.64807,8.75238 -0.65301,2.58347 -2.593715,5.81452 -3.774471,8.74426 z"
     id="path4129" />
  <path
     style="fill:#808080;fill-rule:evenodd;stroke-width:1px"
     inkscape:connector-curvature="0"
     d="m 95.493347,127.16183 c -9.362152,1.54841 -25.001007,5.06336 -36.657288,7.74448 -1.597565,0.36746 -3.153717,0.81705 -4.730591,1.22556 -6.067657,1.57196 -12.48465,1.83663 -18.325989,2.84069 -4.05603,0.69721 -9.06662,-0.328 -12.406036,-1.27011 -6.337585,-1.7879 -10.328064,-3.5314 -14.755798,-6.64029 -2.551971,-1.79184 -3.689316,-3.73935 -4.710175,-6.61419 -0.897598,-2.52768 -0.57666,-5.4798 -0.569443,-8.25388 0.0072,-2.77377 7.108353,-6.58356 9.47612,-8.22775 2.938232,-2.04035 3.53302,-3.07831 7.693741,-4.51883 3.984116,-1.37937 8.7155,-0.87946 13.004501,-1.61667 3.03476,-0.52164 7.477142,0.0194 10.636536,0.0277 4.384918,0.0114 8.784393,0.9378 12.995911,1.68426 4.302612,0.76264 8.268738,0.94962 12.404968,1.68274 3.532043,0.62604 6.548309,1.0575 10.041321,1.67658 3.543976,0.62817 4.433044,1.5607 7.084564,2.49417 2.583191,0.90939 5.716614,1.21963 8.268585,1.67197 2.999146,0.53158 3.469849,2.80184 4.715546,4.55108 1.00848,1.41614 -0.268036,4.83905 -0.605927,5.77512 -0.615204,1.70434 -2.446869,3.83499 -3.560547,5.76742 z"
     id="path4131" />
  <path
     style="fill:#b3b3b3;fill-rule:evenodd;stroke-width:1px"
     inkscape:connector-curvature="0"
     d="m 127.2038,96.626221 c 4.53891,-9.117889 11.04138,-25.251099 15.81665,-37.335419 0.65448,-1.656189 1.18545,-3.358582 1.77816,-5.037872 2.28077,-6.461823 6.31806,-11.937134 9.10587,-17.662964 1.93579,-3.97583 6.52054,-7.053833 9.87704,-8.853699 6.37003,-3.415802 11.09919,-4.966156 17.71192,-5.545044 3.81134,-0.333649 6.84576,0.634308 10.87954,2.598297 3.5467,1.726837 6.76181,4.856995 9.9823,7.559052 3.22019,2.701782 2.84153,12.178986 3.14997,15.702393 0.38275,4.372284 1.18686,5.864777 0.0445,10.648193 -1.0939,4.580414 -4.87881,7.941864 -6.92581,12.146057 -1.44836,2.974762 -5.08545,6.061279 -7.23425,8.622375 -2.98233,3.554565 -7.03836,6.231689 -10.75797,8.930847 -3.80002,2.757507 -6.70294,5.800903 -10.35605,8.451782 -3.11947,2.263672 -5.66342,4.297091 -8.74844,6.535741 -3.13004,2.2713 -4.81619,2.08795 -7.69696,3.33682 -2.80646,1.21667 -5.28885,3.46313 -7.54276,5.09866 -2.6488,1.92215 -5.60711,0.0984 -8.48443,-0.58877 -2.32938,-0.55631 -5.44483,-4.92112 -6.30438,-6.10566 -1.56504,-2.15673 -2.80213,-5.717007 -4.29486,-8.50079 z"
     id="path4135" />
  <path
     style="fill:#ececec;fill-rule:evenodd;stroke-width:1px"
     inkscape:connector-curvature="0"
     d="m 135.23358,100.62039 c 4.81006,-8.179899 12.13214,-22.43878 17.54254,-33.105802 0.74152,-1.461975 1.3935,-2.944763 2.09021,-4.417175 2.681,-5.665649 6.58951,-10.761871 9.56153,-15.889862 2.06366,-3.56076 6.06131,-6.750702 8.92434,-8.710876 5.43351,-3.720032 9.32898,-5.666565 14.55292,-7.073914 3.01087,-0.811127 5.23477,-0.436462 8.09607,0.621857 2.51575,0.930481 4.5766,3.068481 6.70175,4.851501 2.12494,1.782867 0.49982,9.675873 0.24497,12.547241 -0.31623,3.563171 0.0996,4.684906 -1.46048,8.802307 -1.49384,3.942627 -4.9093,7.254791 -7.09149,11.02002 -1.54404,2.664185 -4.80594,5.728119 -6.83664,8.148438 -2.81842,3.359192 -6.34864,6.143311 -9.62027,8.898376 -3.34241,2.814636 -6.02729,5.739807 -9.24045,8.445648 -2.74381,2.310547 -5.00775,4.349854 -7.72122,6.634921 -2.75309,2.31836 -4.03867,2.40341 -6.45435,3.841 -2.35336,1.40051 -4.59933,3.60742 -6.58179,5.27683 -2.3298,1.96197 -4.37442,0.86865 -6.51556,0.70422 -1.73343,-0.13315 -3.54343,-3.30643 -4.04556,-4.16562 -0.91431,-1.56439 -1.3765,-4.33585 -2.14652,-6.42911 z"
     id="path4137" />
  <path
     style="fill:#999999;fill-rule:evenodd;stroke-width:1px"
     inkscape:connector-curvature="0"
     d="m 139.69345,107.82895 c 9.85684,-2.56522 26.29358,-8.25699 38.54266,-12.592134 1.67881,-0.594177 3.31131,-1.311768 4.96695,-1.967651 6.37082,-2.523773 13.15131,-3.075073 19.30011,-4.733124 4.26957,-1.151306 9.60172,0.284668 13.16339,1.63382 6.75937,2.560455 11.03437,5.108582 15.81379,9.715179 2.75464,2.65506 4.01754,5.57907 5.1856,9.91086 1.02704,3.80868 0.77802,8.28897 0.85541,12.49215 0.0774,4.20276 -7.3182,10.14127 -9.7727,12.68784 -3.04584,3.16013 -3.64328,4.7467 -8.00079,7.02667 -4.17255,2.1832 -9.19321,1.53653 -13.70798,2.75397 -3.19452,0.86139 -7.91074,0.14563 -11.25333,0.20718 -4.63916,0.0854 -9.32181,-1.21515 -13.80008,-2.24749 -4.5751,-1.05469 -8.77667,-1.24509 -13.17489,-2.25901 -3.75574,-0.86581 -6.95987,-1.44882 -10.67417,-2.30505 -3.76843,-0.86875 -4.73755,-2.26074 -7.57126,-3.61298 -2.76062,-1.31735 -6.08499,-1.71402 -8.79861,-2.3396 -3.18912,-0.73517 -3.75662,-4.16379 -5.12808,-6.78491 -1.11029,-2.12198 0.13528,-7.33792 0.46405,-8.76407 0.59857,-2.59665 2.47101,-5.86774 3.58993,-8.82165 z"
     id="path4141" />
  <path
     style="fill:#808080;fill-rule:evenodd;stroke-width:1px"
     inkscape:connector-curvature="0"
     d="m 141.95489,116.50748 c 9.32755,-1.74475 24.8891,-5.58744 36.48652,-8.51288 1.58947,-0.40094 3.13586,-0.88309 4.70379,-1.32465 6.03327,-1.69909 12.4433,-2.09851 18.26224,-3.22506 4.0405,-0.78226 9.07153,0.13745 12.42999,1.00918 6.37375,1.65439 10.4,3.31366 14.89206,6.32886 2.58905,1.73782 3.76706,3.66098 4.84808,6.51376 0.9505,2.50827 0.69165,5.46649 0.74271,8.24011 0.0511,2.77332 -6.96844,6.73145 -9.30118,8.42502 -2.89471,2.10159 -3.46756,3.15186 -7.5971,4.67948 -3.95426,1.46273 -8.6951,1.06234 -12.96765,1.88949 -3.02317,0.58527 -7.47593,0.13764 -10.63477,0.1958 -4.38422,0.0807 -8.80219,-0.75302 -13.02844,-1.41086 -4.31769,-0.67208 -8.28687,-0.77569 -12.4376,-1.42178 -3.5444,-0.5517 -6.56906,-0.91968 -10.07434,-1.46524 -3.55639,-0.55359 -4.46481,-1.46722 -7.1354,-2.34479 -2.60172,-0.85492 -5.74097,-1.09927 -8.30185,-1.49789 -3.00965,-0.46845 -3.52796,-2.72833 -4.81012,-4.45102 -1.03803,-1.39465 0.16632,-4.8436 0.48447,-5.78656 0.57925,-1.71689 2.36575,-3.88556 3.43859,-5.84097 z"
     id="path4143" />
  <path
     style="fill:#b3b3b3;fill-rule:evenodd;stroke-width:1px"
     inkscape:connector-curvature="0"
     d="m 105.7435,147.68204 c -1.78763,10.02707 -6.178375,26.85812 -9.543701,39.40835 -0.461243,1.72007 -1.049164,3.40363 -1.57373,5.10544 -2.018555,6.54846 -2.038666,13.35129 -3.211456,19.61078 -0.814362,4.34644 1.033661,9.55017 2.65683,12.99561 3.080475,6.53875 5.954677,10.60168 10.920467,15.00677 2.86207,2.53888 5.87577,3.56958 10.28556,4.39581 3.87726,0.72644 8.3244,0.1283 12.52081,-0.1228 4.19592,-0.25104 9.53876,-8.08783 11.88589,-10.7337 2.9126,-3.28333 4.44767,-4.00281 6.38038,-8.52509 1.85067,-4.33032 0.81393,-9.28515 1.67504,-13.88119 0.60932,-3.25205 -0.47259,-7.89795 -0.67227,-11.23511 -0.27713,-4.63171 -1.93939,-9.19846 -3.31833,-13.58243 -1.40878,-4.47879 -1.92672,-8.65265 -3.281,-12.95825 -1.15647,-3.67664 -1.98792,-6.82547 -3.13159,-10.46155 -1.1604,-3.68909 -2.62381,-4.54651 -4.19321,-7.26599 -1.52893,-2.64929 -2.18402,-5.93256 -3.01959,-8.58902 -0.98197,-3.12195 -4.44443,-3.42001 -7.16468,-4.58255 -2.2022,-0.94119 -7.30496,0.70789 -8.70108,1.14703 -2.54193,0.79953 -5.65683,2.9217 -8.51434,4.26789 z"
     id="path4165" />
  <path
     style="fill:#808080;fill-rule:evenodd;stroke-width:1px"
     inkscape:connector-curvature="0"
     d="m 114.57214,149.25882 c -1.01098,9.43536 -3.62667,25.24948 -5.63748,37.03992 -0.27557,1.61593 -0.63553,3.19522 -0.95328,4.79287 -1.22274,6.14753 -1.12036,12.56919 -1.78903,18.45832 -0.46432,4.08926 0.84549,9.03311 1.97684,12.31326 2.14706,6.22504 4.11569,10.10937 7.4725,14.35229 1.93469,2.44544 3.94397,3.46967 6.87247,4.32459 2.57483,0.75171 5.50378,0.26263 8.27295,0.0969 2.76883,-0.16564 6.16669,-7.47283 7.67291,-9.93072 1.86911,-3.04999 2.87143,-3.70313 4.07187,-7.93933 1.14951,-4.05646 0.38007,-8.75153 0.87103,-13.07563 0.34742,-3.0596 -0.44659,-7.46383 -0.63531,-10.61758 -0.2619,-4.37711 -1.43811,-8.71646 -2.42398,-12.87845 -1.00724,-4.25201 -1.4205,-8.20096 -2.38874,-12.28857 -0.82681,-3.49048 -1.4299,-6.47717 -2.24752,-9.92914 -0.82962,-3.50229 -1.8114,-4.33661 -2.89487,-6.93051 -1.05548,-2.52698 -1.54425,-5.63757 -2.14166,-8.15951 -0.70206,-2.9639 -2.99552,-3.30411 -4.81305,-4.44785 -1.47144,-0.9259 -4.81583,0.5441 -5.73105,0.93491 -1.66641,0.71157 -3.68894,2.66195 -5.5546,3.88421 z"
     id="path4167" />
  <path
     style="fill:#b3b3b3;fill-rule:evenodd;stroke-width:1px"
     inkscape:connector-curvature="0"
     d="m 91.250946,128.97021 c -8.409821,5.74567 -23.499664,14.39777 -34.815521,20.78409 -1.550903,0.87528 -3.164429,1.63455 -4.746674,2.45182 -6.088257,3.14483 -10.958618,7.89437 -16.248352,11.44061 -3.673035,2.46237 -6.093689,7.42569 -7.416565,10.99722 -2.510559,6.77802 -3.398193,11.67502 -3.065369,18.30472 0.191833,3.82107 1.566498,6.69424 4.064789,10.42081 2.196625,3.27655 5.737854,6.03235 8.855774,8.85217 3.117584,2.81952 12.453491,1.1456 15.985931,0.96826 4.383484,-0.22006 5.972107,0.37192 10.553833,-1.41525 4.387238,-1.71131 7.198303,-5.92117 11.082306,-8.52503 2.748199,-1.84237 5.307098,-5.86813 7.549561,-8.34765 3.112305,-3.44135 5.208313,-7.82602 7.372223,-11.8804 2.210724,-4.14209 4.827576,-7.43473 6.952789,-11.41663 1.814789,-3.40027 3.480379,-6.19891 5.275149,-9.56161 1.82089,-3.41178 1.40817,-5.05692 2.25046,-8.08164 0.82058,-2.94672 2.70565,-5.71356 4.01687,-8.17032 1.54099,-2.88727 -0.67099,-5.56772 -1.746,-8.3237 -0.87027,-2.23117 -5.62088,-4.71902 -6.91205,-5.40814 -2.35086,-1.2547 -6.047088,-1.99219 -9.009154,-3.08933 z"
     id="path4171" />
  <path
     style="fill:#e6e6e6;fill-rule:evenodd;stroke-width:1px"
     inkscape:connector-curvature="0"
     d="m 96.307892,136.37683 c -7.443542,5.88571 -20.564392,15.09284 -30.389313,21.91406 -1.346558,0.93488 -2.726013,1.78391 -4.08902,2.67585 -5.244781,3.43215 -9.757263,8.00222 -14.429596,11.64895 -3.244324,2.53217 -5.856323,6.92929 -7.40564,10.03394 -2.940277,5.89206 -4.334564,10.01755 -5.012695,15.38507 -0.390869,3.0936 0.285034,5.24521 1.725494,7.93445 1.26651,2.3645 3.666718,4.11288 5.724213,5.97363 2.057251,1.8606 9.653046,-0.83093 12.462402,-1.4769 3.486206,-0.80154 4.654327,-0.54342 8.519104,-2.65301 3.700684,-2.02008 6.513519,-5.85721 9.944183,-8.53485 2.427429,-1.8946 5.015411,-5.54563 7.134613,-7.88886 2.941254,-3.25217 5.215271,-7.13061 7.495972,-10.74896 2.330017,-3.69663 4.85965,-6.75705 7.099609,-10.31073 1.91272,-3.03458 3.622498,-5.55661 5.514132,-8.55765 1.91922,-3.04486 1.82727,-4.32996 2.92022,-6.91986 1.06479,-2.5231 2.94306,-5.05029 4.32505,-7.24283 1.62414,-2.57672 0.26095,-4.45221 -0.19538,-6.55063 -0.36944,-1.69882 -3.76083,-3.05682 -4.68075,-3.43649 -1.67493,-0.69128 -4.483584,-0.76929 -6.6626,-1.24518 z"
     id="path4173" />
  <path
     style="fill:#b3b3b3;fill-rule:evenodd;stroke-width:1px"
     inkscape:connector-curvature="0"
     d="m 129.76581,151.21988 c 5.64026,8.48086 14.10339,23.67749 20.34802,35.07217 0.85586,1.56168 1.59494,3.1846 2.39239,4.77689 3.06861,6.12704 7.75702,11.0563 11.23694,16.38986 2.41638,3.70346 7.34909,6.18585 10.90384,7.55319 6.74616,2.59497 11.63172,3.54364 18.26505,3.29358 3.82318,-0.14416 6.71325,-1.48285 10.4707,-3.93445 3.30374,-2.15554 6.10349,-5.66214 8.96201,-8.74463 2.85821,-3.08215 1.3009,-12.4382 1.16766,-15.97259 -0.16534,-4.3859 0.44641,-5.96701 -1.28342,-10.57068 -1.65646,-4.40826 -5.83093,-7.27161 -8.38607,-11.1878 -1.80796,-2.77097 -5.80149,-5.37992 -8.25281,-7.65317 -3.40225,-3.155 -7.76041,-5.30554 -11.78751,-7.5199 -4.11416,-2.26221 -7.37387,-4.91995 -11.32898,-7.0947 -3.37735,-1.85708 -6.15497,-3.55746 -9.49502,-5.39404 -3.38877,-1.86334 -5.03894,-1.47119 -8.05292,-2.35116 -2.93625,-0.85727 -5.67935,-2.77671 -8.11957,-4.1185 -2.8678,-1.57688 -5.57565,0.60144 -8.34485,1.64199 -2.24185,0.84238 -4.78879,5.56156 -5.49396,6.84403 -1.28393,2.33502 -2.0675,6.02176 -3.2015,8.96991 z"
     id="path4177" />
  <path
     style="fill:#e6e6e6;fill-rule:evenodd;stroke-width:1px"
     inkscape:connector-curvature="0"
     d="m 137.23496,146.25577 c 5.79235,7.51639 14.83505,20.75113 21.53314,30.66037 0.918,1.35812 1.74972,2.74807 2.6246,4.12213 3.36646,5.28717 7.87985,9.85635 11.46799,14.57379 2.49148,3.27567 6.85568,5.94235 9.94076,7.53027 5.85489,3.01361 9.96265,4.45926 15.32129,5.20432 3.0885,0.42944 5.24835,-0.21958 7.95535,-1.62637 2.38013,-1.23688 4.15833,-3.61512 6.04462,-5.6492 1.88611,-2.03388 -0.71042,-9.66269 -1.32126,-12.47989 -0.75799,-3.49591 -0.48529,-4.66074 -2.54651,-8.55152 -1.97372,-3.72561 -5.77548,-6.58612 -8.41009,-10.04992 -1.86417,-2.4509 -5.48261,-5.08423 -7.7992,-7.23249 -3.21524,-2.98163 -7.065,-5.30386 -10.65463,-7.62954 -3.66723,-2.37595 -6.69586,-4.94358 -10.22131,-7.2277 -3.01047,-1.95043 -5.51099,-3.69156 -8.48816,-5.62051 -3.02066,-1.95703 -4.30683,-1.88113 -6.88287,-3.00632 -2.50962,-1.09619 -5.01322,-3.00586 -7.18833,-4.4151 -2.55624,-1.65619 -4.44858,-0.31649 -6.55255,0.11362 -1.70328,0.34821 -3.10352,3.72241 -3.49463,4.63751 -0.71213,1.66617 -0.82516,4.47364 -1.32822,6.64655 z"
     id="path4179" />
  <path
     style="fill:#666666"
     inkscape:connector-curvature="0"
     id="path2166"
     d="m 155.73517,122.29962 a 35.95416,35.95416 0 0 1 -71.90832,0 35.95416,35.95416 0 1 1 71.90832,0 z" />
</svg>
