<?xml version="1.0" encoding="UTF-8" standalone="no"?>
<svg
   xmlns:dc="http://purl.org/dc/elements/1.1/"
   xmlns:cc="http://creativecommons.org/ns#"
   xmlns:rdf="http://www.w3.org/1999/02/22-rdf-syntax-ns#"
   xmlns:svg="http://www.w3.org/2000/svg"
   xmlns="http://www.w3.org/2000/svg"
   xmlns:sodipodi="http://sodipodi.sourceforge.net/DTD/sodipodi-0.dtd"
   xmlns:inkscape="http://www.inkscape.org/namespaces/inkscape"
   width="100"
   height="100"
   id="svg2"
   version="1.1"
   inkscape:version="0.48.5 r10040"
   sodipodi:docname="icon.svg">
  <metadata
     id="metadata17">
    <rdf:RDF>
      <cc:Work
         rdf:about="">
        <dc:format>image/svg+xml</dc:format>
        <dc:type
           rdf:resource="http://purl.org/dc/dcmitype/StillImage" />
        <dc:title></dc:title>
      </cc:Work>
    </rdf:RDF>
  </metadata>
  <defs
     id="defs15" />
  <sodipodi:namedview
     pagecolor="#ffffff"
     bordercolor="#666666"
     borderopacity="1"
     objecttolerance="10"
     gridtolerance="10"
     guidetolerance="10"
     inkscape:pageopacity="0"
     inkscape:pageshadow="2"
     inkscape:window-width="865"
     inkscape:window-height="713"
     id="namedview13"
     showgrid="false"
     inkscape:zoom="1"
     inkscape:cx="240.32353"
     inkscape:cy="200"
     inkscape:window-x="2322"
     inkscape:window-y="115"
     inkscape:window-maximized="0"
     inkscape:current-layer="svg2" />
  <path
     style="fill:#decd87"
     inkscape:connector-curvature="0"
     id="svg_100"
     d="M 82.210885,35.036878 90.90709,29.636872 78.505224,26.333408 C 68.147581,9.773313 47.010262,18.409333 39.945276,34.159363 31.422023,53.143252 7.009714,60.068487 7.009714,60.068487 24.384494,78.870398 40.0547,82.265919 50.50648,81.516507 60.963737,80.762464 89.186836,73.282672 83.311836,39.90124 83.006285,38.165471 82.635255,36.549964 82.210885,35.036878 z" />
  <g
     id="svg_101"
     style="fill:#1c241f"
     transform="matrix(0.05921769,0,0,0.0538796,5.4755002,8.571258)">
    <path
       style="fill:#1c241f"
       inkscape:connector-curvature="0"
       id="svg_102"
       d="m 1233.2415,329.67041 c 24.9962,43.93231 46.2371,97.50812 62.5767,161.53546 l 146.8516,-100.22363 -209.4283,-61.31183 z" />
    <path
       style="fill:#1c241f"
       inkscape:connector-curvature="0"
       id="svg_103"
       d="m 999.79016,718.71588 c 0,0 -489.89172,-101.01178 -546.05731,171.56976 -56.15888,272.54846 396.13916,430.73256 546.05731,-171.56976 z" />
    <path
       style="fill:#1c241f"
       inkscape:connector-curvature="0"
       id="svg_104"
       d="m 1094.0663,322.09338 c 3.2587,29.22858 -11.7894,54.97998 -33.7125,57.52991 -22.0027,2.46387 -42.5216,-19.27374 -45.7804,-48.45599 -3.3448,-29.22858 11.7166,-54.97995 33.7193,-57.52991 22.0092,-2.3844 42.4287,19.23401 45.7736,48.45599 z" />
  </g>
</svg>
