<?xml version="1.0"?><svg width="237.52196" height="244.55246" xmlns="http://www.w3.org/2000/svg">
 <title>Pink Flower</title>

 <metadata id="metadata7">image/svg+xml</metadata>
 <g>
  <title>Layer 1</title>
  <path fill="#a43ded" fill-rule="evenodd" stroke-width="1px" id="path2172" d="m105.086731,97.600677c-2.383362,-9.902405 -7.771576,-26.441132 -11.880493,-38.767944c-0.563171,-1.689453 -1.25058,-3.334869 -1.875885,-5.002319c-2.406067,-6.416199 -2.832458,-13.205688 -4.377014,-19.383972c-1.07251,-4.290009 0.461365,-9.594849 1.875854,-13.131073c2.684418,-6.71109 5.310822,-10.938446 10.004639,-15.632263c2.705322,-2.705292 5.652069,-3.914154 10.004608,-5.002289c3.826965,-0.956757 8.30191,-0.625305 12.505798,-0.625305c4.203461,0 10.004822,7.503693 12.505798,10.004639c3.103516,3.103485 4.678802,3.730011 6.878174,8.128754c2.106018,4.212036 1.367065,9.21994 2.50116,13.756378c0.80246,3.209839 0,7.912048 0,11.255219c0,4.639954 -1.386536,9.297852 -2.50116,13.756348c-1.138733,4.554962 -1.406433,8.752289 -2.50116,13.131104c-0.934784,3.739166 -1.576691,6.932037 -2.50116,10.629913c-0.937958,3.751801 -2.347565,4.695129 -3.75174,7.503479c-1.36795,2.735901 -1.825745,6.052399 -2.50116,8.754059c-0.793732,3.175018 -4.232239,3.679352 -6.878174,5.002289c-2.142029,1.071045 -7.334198,-0.270325 -8.754028,-0.625275c-2.585175,-0.646301 -5.821259,-2.578613 -8.754059,-3.75174z"/>
  <path fill="#bea6d8" fill-rule="evenodd" stroke-width="1px" id="path3146" d="m113.80542,95.49939c-1.572754,-9.358124 -5.128326,-24.987762 -7.839783,-36.637054c-0.371613,-1.596588 -0.825226,-3.151581 -1.237854,-4.727386c-1.587738,-6.063507 -1.86908,-12.479828 -2.888336,-18.318512c-0.707733,-4.054199 0.304443,-9.067444 1.237854,-12.409302c1.771423,-6.342224 3.504547,-10.337219 6.601929,-14.77301c1.785187,-2.556641 3.729706,-3.699036 6.601898,-4.727356c2.52536,-0.904175 5.478302,-0.590912 8.25238,-0.590912c2.773804,0 6.602051,7.091217 8.25238,9.454681c2.047943,2.932922 3.087463,3.525024 4.538818,7.681976c1.389709,3.98053 0.9021,8.713165 1.650452,13.000244c0.529541,3.033417 0,7.477173 0,10.636566c0,4.384949 -0.914948,8.786804 -1.650452,13.000244c-0.751465,4.304596 -0.928101,8.271179 -1.650482,12.409332c-0.616852,3.53363 -1.040466,6.551025 -1.650482,10.045654c-0.618927,3.545593 -1.549133,4.437042 -2.475708,7.091034c-0.902679,2.58551 -1.204803,5.719757 -1.650482,8.272888c-0.523773,3.000488 -2.792816,3.477112 -4.538818,4.727356c-1.413513,1.012146 -4.839722,-0.255463 -5.776642,-0.590912c-1.705933,-0.610779 -3.84137,-2.43689 -5.776672,-3.545532z"/>
  <path fill="#a43ded" fill-rule="evenodd" stroke-width="1px" id="path4123" d="m90.966522,113.756317c-8.409821,-5.745667 -23.499664,-14.397766 -34.815521,-20.784119c-1.550873,-0.875244 -3.164429,-1.634521 -4.746643,-2.451813c-6.088287,-3.144806 -10.958649,-7.894379 -16.248383,-11.440582c-3.673035,-2.462402 -6.093658,-7.42572 -7.416565,-10.997223c-2.510559,-6.778046 -3.398193,-11.675049 -3.065369,-18.304718c0.191833,-3.821106 1.566528,-6.694244 4.064789,-10.420807c2.196625,-3.276581 5.737854,-6.032379 8.855774,-8.852173c3.117584,-2.819519 12.453491,-1.145599 15.985931,-0.968262c4.383484,0.220062 5.972107,-0.371918 10.553833,1.415222c4.387238,1.711304 7.198303,5.921204 11.082306,8.525024c2.748199,1.842407 5.307098,5.868164 7.549561,8.347687c3.112305,3.441345 5.208313,7.825989 7.372223,11.880371c2.210724,4.14212 4.827576,7.434723 6.95282,11.416656c1.814758,3.400269 3.480347,6.198883 5.275116,9.561584c1.820923,3.411774 1.408173,5.056915 2.250458,8.081665c0.820587,2.946686 2.705658,5.713562 4.016876,8.170319c1.540985,2.887238 -0.670959,5.567688 -1.746002,8.3237c-0.87027,2.231171 -5.62088,4.719025 -6.912048,5.408142c-2.350861,1.2547 -6.047089,1.992188 -9.009155,3.089325z"/>
  <path fill="#e7dcf4" fill-rule="evenodd" stroke-width="1px" id="path4125" d="m96.023468,107.34967c-7.443542,-5.885712 -20.564392,-15.092834 -30.389313,-21.914032c-1.346527,-0.934875 -2.726013,-1.783905 -4.08902,-2.675873c-5.244781,-3.432159 -9.757263,-8.002228 -14.429565,-11.648926c-3.244354,-2.532166 -5.856323,-6.929291 -7.40567,-10.033966c-2.940277,-5.892029 -4.334564,-10.017517 -5.012695,-15.38504c-0.390869,-3.093628 0.285065,-5.245209 1.725494,-7.934448c1.26651,-2.364502 3.666748,-4.112885 5.724213,-5.973663c2.057251,-1.860565 9.653076,0.830963 12.462402,1.476898c3.486206,0.801575 4.654327,0.543427 8.519104,2.653015c3.700684,2.020081 6.51355,5.857239 9.944183,8.534882c2.427429,1.894592 5.015411,5.545593 7.134613,7.888824c2.941254,3.252197 5.215271,7.130646 7.495972,10.748993c2.330017,3.696625 4.85965,6.75705 7.099609,10.31073c1.91272,3.034576 3.622498,5.55661 5.51413,8.557648c1.91922,3.04483 1.827271,4.329956 2.920227,6.91983c1.064789,2.523102 2.943054,5.050323 4.325043,7.242859c1.624146,2.576721 0.260956,4.452179 -0.195374,6.550629c-0.369446,1.698792 -3.760834,3.056824 -4.680756,3.436493c-1.674927,0.691284 -4.483582,0.769257 -6.662598,1.245148z"/>
  <path fill="#a43ded" fill-rule="evenodd" stroke-width="1px" id="path4129" d="m97.57196,134.885956c-9.908569,2.357605 -26.461212,7.702789 -38.798706,11.779663c-1.690887,0.558746 -3.338104,1.241913 -5.007172,1.862854c-6.422455,2.389374 -13.213013,2.798126 -19.395294,4.32663c-4.292786,1.06134 -9.593628,-0.486328 -13.12616,-1.910034c-6.704071,-2.701843 -10.924591,-5.339233 -15.606171,-10.045227c-2.698273,-2.712341 -3.89946,-5.662231 -4.976273,-10.017609c-0.946793,-3.829437 -0.603699,-8.303497 -0.592773,-12.507355c0.010925,-4.203461 7.529648,-9.985291 10.037109,-12.479736c3.111557,-3.095428 3.742172,-4.669098 8.146622,-6.857056c4.217499,-2.095032 9.22345,-1.343048 13.762817,-2.465363c3.211914,-0.794098 7.912048,0.020569 11.255188,0.029266c4.639954,0.012085 9.29422,1.410706 13.749817,2.536896c4.551971,1.150604 8.748566,1.42923 13.124542,2.535309c3.736694,0.944519 6.927887,1.594696 10.623352,2.528778c3.74939,0.947723 4.689026,2.359772 7.493713,3.77124c2.73233,1.375061 6.047638,1.841492 8.747498,2.523926c3.172974,0.802002 3.668365,4.241791 4.984436,6.891174c1.06546,2.144806 -0.289398,7.333435 -0.648071,8.75238c-0.653015,2.583466 -2.593719,5.814514 -3.774475,8.744263z"/>
  <path fill="#bea6d8" fill-rule="evenodd" stroke-width="1px" id="path4131" d="m96.493347,127.161835c-9.362152,1.548401 -25.001007,5.063354 -36.657288,7.744476c-1.597565,0.367462 -3.153717,0.817047 -4.730591,1.225555c-6.067657,1.57196 -12.48465,1.836639 -18.325989,2.840698c-4.05603,0.697205 -9.06662,-0.328003 -12.406036,-1.270111c-6.337585,-1.787903 -10.328064,-3.531403 -14.755798,-6.640289c-2.551971,-1.79184 -3.689316,-3.739349 -4.710175,-6.614197c-0.897598,-2.527679 -0.57666,-5.479797 -0.569443,-8.253876c0.007202,-2.773773 7.108353,-6.583557 9.47612,-8.227753c2.938232,-2.040344 3.53302,-3.078308 7.693741,-4.518829c3.984116,-1.379364 8.7155,-0.879456 13.004501,-1.616669c3.03476,-0.521637 7.477142,0.01944 10.636536,0.027649c4.384918,0.011414 8.784393,0.937805 12.995911,1.684265c4.302612,0.762634 8.268738,0.949615 12.404968,1.682739c3.532043,0.626038 6.548309,1.057495 10.041321,1.676575c3.543976,0.628174 4.433044,1.560699 7.084564,2.494171c2.583191,0.909393 5.716614,1.219635 8.268585,1.671967c2.999146,0.531586 3.469849,2.801849 4.715546,4.551086c1.008484,1.416138 -0.268036,4.83905 -0.605927,5.775116c-0.615204,1.704346 -2.446869,3.834991 -3.560547,5.767426z"/>
  <path fill="#a43ded" fill-rule="evenodd" stroke-width="1px" id="path4135" d="m127.203796,96.626221c4.53891,-9.117889 11.041382,-25.251099 15.81665,-37.335419c0.65448,-1.656189 1.185455,-3.358582 1.778168,-5.037872c2.280762,-6.461823 6.318054,-11.937134 9.105865,-17.662964c1.935791,-3.97583 6.520538,-7.053833 9.877045,-8.853699c6.370026,-3.415802 11.099182,-4.966156 17.711914,-5.545044c3.81134,-0.333649 6.845764,0.634308 10.879547,2.598297c3.546692,1.726837 6.76181,4.856995 9.9823,7.559052c3.220184,2.701782 2.841522,12.178986 3.149963,15.702393c0.382751,4.372284 1.186859,5.864777 0.044464,10.648193c-1.093903,4.580414 -4.878815,7.941864 -6.925812,12.146057c-1.448364,2.974762 -5.085449,6.061279 -7.234253,8.622375c-2.98233,3.554565 -7.038361,6.231689 -10.757965,8.930847c-3.800018,2.757507 -6.702942,5.800903 -10.356049,8.451782c-3.119476,2.263672 -5.663422,4.297089 -8.748444,6.535736c-3.130035,2.271301 -4.816193,2.087952 -7.69696,3.336823c-2.806458,1.216675 -5.288849,3.463135 -7.542755,5.098663c-2.648804,1.92215 -5.607117,0.098419 -8.484436,-0.588776c-2.329376,-0.556305 -5.444824,-4.921112 -6.304382,-6.105652c-1.565033,-2.156738 -2.802124,-5.71701 -4.294861,-8.500793z"/>
  <path fill="#e7dcf4" fill-rule="evenodd" stroke-width="1px" id="path4137" d="m135.233582,100.620392c4.810059,-8.179901 12.132141,-22.438782 17.542542,-33.105804c0.741516,-1.461975 1.393494,-2.944763 2.09021,-4.417175c2.681,-5.665649 6.589508,-10.761871 9.561523,-15.889862c2.06366,-3.56076 6.06131,-6.750702 8.924347,-8.710876c5.433502,-3.720032 9.328979,-5.666565 14.552917,-7.073914c3.010864,-0.811127 5.234772,-0.436462 8.096069,0.621857c2.515747,0.930481 4.576599,3.068481 6.701752,4.851501c2.124939,1.782867 0.499817,9.675873 0.244965,12.547241c-0.316223,3.563171 0.099579,4.684906 -1.46048,8.802307c-1.493835,3.942627 -4.909302,7.254791 -7.091492,11.02002c-1.544037,2.664185 -4.805939,5.728119 -6.836639,8.148438c-2.81842,3.359192 -6.348633,6.143311 -9.62027,8.898376c-3.342407,2.814636 -6.027283,5.739807 -9.240448,8.445648c-2.743805,2.310547 -5.007751,4.349854 -7.721222,6.634918c-2.753082,2.318359 -4.038666,2.403412 -6.454346,3.841003c-2.353363,1.400513 -4.599335,3.607422 -6.581787,5.276825c-2.329803,1.961975 -4.37442,0.868652 -6.515564,0.704224c-1.733429,-0.133148 -3.543427,-3.306427 -4.045563,-4.165619c-0.914307,-1.564392 -1.376495,-4.335846 -2.146515,-6.429108z"/>
  <path fill="#a43ded" fill-rule="evenodd" stroke-width="1px" id="path4141" d="m139.693451,107.828949c9.856842,-2.565216 26.293579,-8.256989 38.542664,-12.592133c1.678802,-0.594177 3.31131,-1.311768 4.966949,-1.967651c6.370819,-2.523773 13.151306,-3.075073 19.30011,-4.733124c4.269562,-1.151306 9.601715,0.284668 13.163391,1.63382c6.759369,2.560455 11.034363,5.108582 15.813782,9.715179c2.754639,2.65506 4.017548,5.579071 5.185608,9.910858c1.027039,3.808685 0.778015,8.288971 0.855408,12.492157c0.077393,4.202759 -7.318207,10.141266 -9.772705,12.687836c-3.045837,3.160126 -3.64328,4.746704 -8.000793,7.026672c-4.172546,2.183197 -9.193207,1.53653 -13.707977,2.753967c-3.194519,0.861389 -7.910736,0.14563 -11.253326,0.207184c-4.63916,0.085419 -9.321808,-1.215149 -13.800079,-2.247498c-4.575104,-1.054688 -8.776672,-1.245087 -13.174896,-2.259003c-3.755737,-0.865814 -6.959869,-1.448822 -10.674164,-2.305054c-3.768433,-0.868744 -4.737549,-2.260742 -7.571259,-3.612976c-2.76062,-1.317352 -6.084991,-1.71402 -8.798615,-2.3396c-3.189117,-0.735168 -3.756622,-4.163788 -5.128082,-6.784912c-1.110291,-2.121979 0.135284,-7.337921 0.46405,-8.764069c0.598572,-2.596649 2.471008,-5.867737 3.589935,-8.821655z"/>
  <path fill="#bea6d8" fill-rule="evenodd" stroke-width="1px" id="path4143" d="m141.954895,116.507477c9.327545,-1.744751 24.889099,-5.587433 36.486511,-8.512878c1.589478,-0.40094 3.135864,-0.883087 4.703796,-1.324646c6.033264,-1.699097 12.443298,-2.098511 18.262238,-3.225067c4.040497,-0.782257 9.071533,0.137451 12.429993,1.009186c6.373749,1.654388 10.399994,3.31366 14.892059,6.328857c2.58905,1.737823 3.767059,3.66098 4.848083,6.513763c0.9505,2.50827 0.69165,5.466492 0.742706,8.240112c0.051086,2.773315 -6.968445,6.731445 -9.301178,8.425018c-2.894714,2.101593 -3.46756,3.151855 -7.597107,4.679474c-3.954254,1.462738 -8.695099,1.062347 -12.967651,1.889496c-3.023163,0.585266 -7.475922,0.137634 -10.634766,0.195801c-4.384216,0.080719 -8.802185,-0.753021 -13.028442,-1.410858c-4.317688,-0.672089 -8.286865,-0.775696 -12.437592,-1.421783c-3.544403,-0.551697 -6.569061,-0.919678 -10.074341,-1.46524c-3.556396,-0.553589 -4.464813,-1.467224 -7.135406,-2.344788c-2.601715,-0.854919 -5.740967,-1.099274 -8.301849,-1.497894c-3.009644,-0.468445 -3.527954,-2.728333 -4.81012,-4.451019c-1.038025,-1.394653 0.166321,-4.843597 0.484467,-5.78656c0.579254,-1.716888 2.365753,-3.885559 3.438599,-5.840973z"/>
  <path fill="#a43ded" fill-rule="evenodd" stroke-width="1px" id="path4165" d="m105.7435,147.682037c-1.787628,10.027069 -6.178375,26.858124 -9.543701,39.408356c-0.461243,1.720062 -1.049164,3.403625 -1.57373,5.105438c-2.018555,6.548462 -2.038666,13.351288 -3.211456,19.610779c-0.814362,4.346436 1.033661,9.550171 2.65683,12.995605c3.080475,6.538757 5.954681,10.601685 10.920471,15.006775c2.862061,2.538879 5.875763,3.56958 10.285553,4.395813c3.877258,0.72644 8.324402,0.128296 12.520813,-0.122803c4.195923,-0.251038 9.538757,-8.08783 11.885895,-10.733704c2.912598,-3.283325 4.447662,-4.002808 6.380371,-8.525085c1.850677,-4.330322 0.813934,-9.285156 1.675049,-13.881195c0.609314,-3.252045 -0.472595,-7.897949 -0.672272,-11.235107c-0.27713,-4.631714 -1.939392,-9.198456 -3.318329,-13.582428c-1.408783,-4.47879 -1.926727,-8.652649 -3.281006,-12.958252c-1.156464,-3.676636 -1.987915,-6.82547 -3.131592,-10.461548c-1.1604,-3.689087 -2.62381,-4.546509 -4.193207,-7.265991c-1.528931,-2.649292 -2.184021,-5.932556 -3.019592,-8.58902c-0.981964,-3.121948 -4.444427,-3.420013 -7.164673,-4.58255c-2.202209,-0.941193 -7.304962,0.707886 -8.70108,1.147034c-2.541931,0.79953 -5.65683,2.921692 -8.514343,4.267883z"/>
  <path fill="#bea6d8" fill-rule="evenodd" stroke-width="1px" id="path4167" d="m114.572144,149.25882c-1.010986,9.435364 -3.626678,25.249481 -5.637482,37.039917c-0.275574,1.615936 -0.635529,3.195221 -0.953278,4.792877c-1.222748,6.147522 -1.120361,12.569183 -1.789032,18.458313c-0.464325,4.089264 0.84549,9.033112 1.976837,12.313263c2.147064,6.225037 4.115692,10.109375 7.472504,14.352295c1.934692,2.445435 3.94397,3.469666 6.872467,4.324585c2.574829,0.751709 5.503784,0.262634 8.272949,0.096924c2.768829,-0.165649 6.166687,-7.472839 7.672913,-9.930725c1.86911,-3.049988 2.871429,-3.703125 4.071869,-7.939331c1.149506,-4.056458 0.380066,-8.751526 0.871033,-13.075623c0.347412,-3.059601 -0.446594,-7.463837 -0.635315,-10.617584c-0.261902,-4.377106 -1.43811,-8.716461 -2.423981,-12.878448c-1.007233,-4.252014 -1.420502,-8.200958 -2.388733,-12.288574c-0.826813,-3.490479 -1.429901,-6.477173 -2.247528,-9.929138c-0.82962,-3.502289 -1.811401,-4.336609 -2.894867,-6.930511c-1.055481,-2.526978 -1.54425,-5.637573 -2.141663,-8.159515c-0.702057,-2.963898 -2.995514,-3.304108 -4.813049,-4.447845c-1.471436,-0.925903 -4.815826,0.544098 -5.731049,0.934906c-1.666412,0.711578 -3.688934,2.661957 -5.554596,3.884216z"/>
  <path fill="#a43ded" fill-rule="evenodd" stroke-width="1px" id="path4171" d="m91.250946,128.970215c-8.409821,5.745667 -23.499664,14.397766 -34.815521,20.784088c-1.550903,0.875275 -3.164429,1.634552 -4.746674,2.451813c-6.088257,3.144836 -10.958618,7.894379 -16.248352,11.440613c-3.673035,2.462372 -6.093689,7.42569 -7.416565,10.997223c-2.510559,6.778015 -3.398193,11.675018 -3.065369,18.304718c0.191833,3.821075 1.566498,6.694244 4.064789,10.420807c2.196625,3.27655 5.737854,6.032349 8.855774,8.852173c3.117584,2.819519 12.453491,1.145599 15.985931,0.968262c4.383484,-0.220062 5.972107,0.371918 10.553833,-1.415253c4.387238,-1.711304 7.198303,-5.921173 11.082306,-8.525024c2.748199,-1.842377 5.307098,-5.868134 7.549561,-8.347656c3.112305,-3.441345 5.208313,-7.826019 7.372223,-11.880402c2.210724,-4.14209 4.827576,-7.434723 6.952789,-11.416626c1.814789,-3.400269 3.480377,-6.198914 5.275146,-9.561615c1.820892,-3.411774 1.408173,-5.056915 2.250458,-8.081635c0.820587,-2.946716 2.705658,-5.713562 4.016876,-8.170319c1.540985,-2.887268 -0.67099,-5.567719 -1.746002,-8.3237c-0.87027,-2.231171 -5.62088,-4.719025 -6.912048,-5.408142c-2.350861,-1.2547 -6.047089,-1.992188 -9.009155,-3.089325z"/>
  <path fill="#e7dcf4" fill-rule="evenodd" stroke-width="1px" id="path4173" d="m96.307892,136.376831c-7.443542,5.885712 -20.564392,15.092834 -30.389313,21.914063c-1.346558,0.934875 -2.726013,1.783905 -4.08902,2.675842c-5.244781,3.432159 -9.757263,8.002228 -14.429596,11.648956c-3.244324,2.532166 -5.856323,6.929291 -7.40564,10.033936c-2.940277,5.892059 -4.334564,10.017548 -5.012695,15.385071c-0.390869,3.093597 0.285034,5.245209 1.725494,7.934448c1.26651,2.364502 3.666718,4.112885 5.724213,5.973633c2.057251,1.860596 9.653046,-0.830933 12.462402,-1.476898c3.486206,-0.801544 4.654327,-0.543427 8.519104,-2.653015c3.700684,-2.020081 6.513519,-5.857208 9.944183,-8.534851c2.427429,-1.894592 5.015411,-5.545624 7.134613,-7.888855c2.941254,-3.252167 5.215271,-7.130615 7.495972,-10.748962c2.330017,-3.696625 4.85965,-6.75705 7.099609,-10.31073c1.91272,-3.034576 3.622498,-5.55661 5.51413,-8.557648c1.91922,-3.044861 1.827271,-4.329956 2.920227,-6.919861c1.064789,-2.523102 2.943054,-5.050293 4.325043,-7.242828c1.624146,-2.576721 0.260956,-4.452209 -0.195374,-6.550629c-0.369446,-1.698822 -3.760834,-3.056824 -4.680756,-3.436493c-1.674927,-0.691284 -4.483582,-0.769287 -6.662598,-1.245178z"/>
  <path fill="#a43ded" fill-rule="evenodd" stroke-width="1px" id="path4177" d="m129.765808,151.219879c5.640259,8.480865 14.103394,23.67749 20.348022,35.072174c0.855865,1.561676 1.59494,3.184601 2.392395,4.776886c3.068604,6.127045 8.820557,12.686401 11.236938,16.389862c2.416382,3.703461 7.349091,6.185852 10.903839,7.553192c6.746155,2.594971 11.631714,3.54364 18.265045,3.293579c3.823181,-0.144165 6.713257,-1.482849 10.470703,-3.934448c3.303741,-2.155548 6.103485,-5.66214 8.962006,-8.744629c2.858215,-3.082153 1.300903,-12.438202 1.167664,-15.972595c-0.165344,-4.385895 0.446411,-5.96701 -1.283417,-10.570679c-1.656464,-4.408264 -5.830933,-7.271606 -8.386078,-11.187805c-1.807953,-2.770966 -5.801483,-5.379913 -8.252808,-7.653168c-3.402252,-3.154999 -7.760406,-5.305542 -11.787506,-7.519897c-4.114166,-2.262207 -7.373871,-4.919952 -11.328979,-7.094696c-3.37735,-1.857086 -6.154968,-3.557465 -9.495026,-5.394043c-3.388763,-1.863342 -5.03894,-1.471191 -8.052917,-2.351166c-2.936249,-0.857269 -5.679352,-2.776703 -8.119568,-4.1185c-2.867798,-1.576874 -5.575653,0.60144 -8.344849,1.641998c-2.241852,0.842377 -4.788788,5.561554 -5.493958,6.844025c-1.283936,2.335022 -2.067505,6.021759 -3.201508,8.96991z"/>
  <path fill="#e7dcf4" fill-rule="evenodd" stroke-width="1px" id="path4179" d="m137.234955,146.255768c5.792358,7.516388 14.835052,20.751129 21.533142,30.66037c0.917999,1.358124 1.749725,2.748077 2.624603,4.122131c3.366455,5.28717 7.879852,9.856354 11.467987,14.573792c2.491486,3.275665 6.855682,5.942352 9.940765,7.530273c5.854889,3.013611 9.962646,4.459259 15.321289,5.204315c3.088501,0.429443 5.248352,-0.219574 7.955353,-1.626373c2.380127,-1.236877 4.158325,-3.615112 6.044617,-5.6492c1.886108,-2.033875 -0.710419,-9.662689 -1.321259,-12.479889c-0.757996,-3.495911 -0.485291,-4.660736 -2.546509,-8.551514c-1.973724,-3.725616 -5.775482,-6.586121 -8.410095,-10.049927c-1.864166,-2.450897 -5.482605,-5.084229 -7.799194,-7.232483c-3.21524,-2.981628 -7.065002,-5.303864 -10.654633,-7.629547c-3.667236,-2.375946 -6.695862,-4.943573 -10.221313,-7.227692c-3.010468,-1.950439 -5.510986,-3.691559 -8.488159,-5.620514c-3.02066,-1.957031 -4.306824,-1.881134 -6.882874,-3.006317c-2.509613,-1.096191 -5.013214,-3.005859 -7.188324,-4.4151c-2.556244,-1.656189 -4.448578,-0.316498 -6.552551,0.113617c-1.703278,0.348206 -3.103516,3.722412 -3.494629,4.637512c-0.712128,1.666168 -0.825165,4.473633 -1.328217,6.646545z"/>
  <path fill="#ffffaa" d="m155.735168,122.299622a35.95414,35.95414 0 1 1 -71.908318,0a35.95414,35.95414 0 1 1 71.908318,0z" id="path2166"/>
 </g>
</svg>