<?xml version="1.0" encoding="UTF-8" standalone="no"?>
<svg
   xmlns:dc="http://purl.org/dc/elements/1.1/"
   xmlns:cc="http://creativecommons.org/ns#"
   xmlns:rdf="http://www.w3.org/1999/02/22-rdf-syntax-ns#"
   xmlns:svg="http://www.w3.org/2000/svg"
   xmlns="http://www.w3.org/2000/svg"
   xmlns:sodipodi="http://sodipodi.sourceforge.net/DTD/sodipodi-0.dtd"
   xmlns:inkscape="http://www.inkscape.org/namespaces/inkscape"
   width="744.09448819"
   height="1052.3622047"
   id="svg2"
   version="1.1"
   inkscape:version="0.48.4 r9939"
   sodipodi:docname="red-bird.svg">
  <defs
     id="defs22" />
  <sodipodi:namedview
     pagecolor="#ffffff"
     bordercolor="#666666"
     borderopacity="1"
     objecttolerance="10"
     gridtolerance="10"
     guidetolerance="10"
     inkscape:pageopacity="0"
     inkscape:pageshadow="2"
     inkscape:window-width="1025"
     inkscape:window-height="804"
     id="namedview20"
     showgrid="false"
     inkscape:zoom="1"
     inkscape:cx="372.04724"
     inkscape:cy="526.18109"
     inkscape:window-x="0"
     inkscape:window-y="0"
     inkscape:window-maximized="0"
     inkscape:current-layer="svg2" />
  <metadata
     id="metadata2443">image/svg+xml<rdf:RDF>
  <cc:Work
     rdf:about="">
    <dc:format>image/svg+xml</dc:format>
    <dc:type
       rdf:resource="http://purl.org/dc/dcmitype/StillImage" />
  </cc:Work>
</rdf:RDF>
</metadata>
  <path
     style="fill:#ff6e00;fill-rule:evenodd;stroke-width:1px"
     inkscape:connector-curvature="0"
     id="path11073"
     d="m 462.90878,537.75324 c 16.13538,-5.65961 22.17868,2.91711 33.27582,4.57745 -15.25433,9.05817 -23.02954,6.62585 -38.09973,10.8017 l 4.82391,-15.37915 z" />
  <path
     style="fill:#ff7f2a;fill-rule:evenodd;stroke-width:1px"
     inkscape:connector-curvature="0"
     id="path11075"
     d="m 496.53012,542.19208 c -7.53943,7.98236 -14.89169,13.31933 -26.79745,20.92846 l -12.96723,-12.51355 c 15.15793,-2.1723 26.45426,-1.29077 39.76468,-8.41491 z" />
  <path
     style="fill:#d45500;fill-rule:evenodd;stroke-width:1px"
     inkscape:connector-curvature="0"
     id="path11069"
     d="m 374.3829,554.75024 c -7.15579,-55.75763 89.28684,-63.26648 92.59754,-3.05066 31.5412,7.99579 57.76639,128.97937 -68.95569,149.82764 -62.66626,11.30493 -81.78824,-22.42529 -116.97974,-35.00323 -16.28296,-3.04499 -45.53074,53.46435 -81.96467,63.39734 -8.58025,2.88378 -37.28447,-0.88892 10.8538,-34.60315 -55.06746,24.66015 -39.48086,7.24237 -28.04879,0.36358 12.96284,-7.7998 30.23379,-18.21551 41.94142,-21.76672 14.72673,-6.00922 31.9694,-13.0871 47.12266,-30.40613 l -29.00911,-4.45373 c 57.21971,-22.72486 28.00212,-51.36457 132.44258,-84.30494 z" />
  <path
     style="fill:#000000;stroke-width:3;stroke-linecap:round;stroke-linejoin:round;stroke-miterlimit:4;stroke-dashoffset:0"
     inkscape:connector-curvature="0"
     d="m 448.92062,535.89948 a 6.671678,7.561242 0 1 1 -0.12277,-0.61835"
     id="path11071"
     stroke-miterlimit="4" />
  <path
     style="fill:#d38d5f;fill-rule:evenodd;stroke-width:1px"
     inkscape:connector-curvature="0"
     id="path11082"
     d="m 484.5806,569.33112 c -5.25797,12.95489 -40.84772,30.60314 -62.34162,33.49627 46.91339,37.87073 46.00498,47.99011 50.43586,61.19574 25.9934,-30.76086 23.56362,-71.55279 11.90576,-94.69201 z" />
  <path
     style="fill:#552200;fill-rule:evenodd;stroke-width:1px"
     inkscape:connector-curvature="0"
     id="path11087"
     d="m 374.28558,553.703 c 0.0374,0.35291 0.0614,0.70209 0.10724,1.0589 -4.4993,1.41913 -8.74853,2.83789 -12.76935,4.24085 l -34.81427,14.56543 c -48.7351,25.09588 -38.82379,47.20239 -84.85389,65.48327 l 21.87285,3.34552 c 2.75738,-0.13354 5.43362,0.15045 7.9624,1.09143 48.79397,-29.79773 92.34915,-10.04113 134.34192,-38.57312 -13.13593,-16.64892 -37.72437,-13.73956 -31.8469,-51.21228 z" />
  <path
     style="fill:#552200;fill-rule:evenodd;stroke-width:1px"
     inkscape:connector-curvature="0"
     id="path11079"
     d="m 410.14987,510.48096 c -20.14255,3.49206 -37.53012,17.78448 -36.04846,41.24743 0.28888,1.67084 -1.47788,3.32868 -2.38281,3.8855 -11.15509,3.59015 -20.7305,7.13251 -29.03037,10.61701 l -1.12478,0.87756 c 55.56741,2.06946 71.53393,-61.04382 117.60705,-37.42859 -0.0521,-0.80768 -0.28577,-1.62116 -0.64935,-2.45929 -10.9737,-14.57068 -30.72507,-19.79889 -48.37128,-16.73962 z" />
</svg>
