<?xml version="1.0" encoding="UTF-8" standalone="no"?>
<svg
   xmlns:dc="http://purl.org/dc/elements/1.1/"
   xmlns:cc="http://creativecommons.org/ns#"
   xmlns:rdf="http://www.w3.org/1999/02/22-rdf-syntax-ns#"
   xmlns:svg="http://www.w3.org/2000/svg"
   xmlns="http://www.w3.org/2000/svg"
   xmlns:sodipodi="http://sodipodi.sourceforge.net/DTD/sodipodi-0.dtd"
   xmlns:inkscape="http://www.inkscape.org/namespaces/inkscape"
   width="512"
   height="512"
   id="svg2"
   version="1.1"
   inkscape:version="0.48.4 r9939"
   sodipodi:docname="purple-bird.svg">
  <metadata
     id="metadata17">
    <rdf:RDF>
      <cc:Work
         rdf:about="">
        <dc:format>image/svg+xml</dc:format>
        <dc:type
           rdf:resource="http://purl.org/dc/dcmitype/StillImage" />
        <dc:title></dc:title>
      </cc:Work>
    </rdf:RDF>
  </metadata>
  <defs
     id="defs15" />
  <sodipodi:namedview
     pagecolor="#ffffff"
     bordercolor="#666666"
     borderopacity="1"
     objecttolerance="10"
     gridtolerance="10"
     guidetolerance="10"
     inkscape:pageopacity="0"
     inkscape:pageshadow="2"
     inkscape:window-width="865"
     inkscape:window-height="713"
     id="namedview13"
     showgrid="false"
     inkscape:zoom="1"
     inkscape:cx="240.32353"
     inkscape:cy="200"
     inkscape:window-x="609"
     inkscape:window-y="133"
     inkscape:window-maximized="0"
     inkscape:current-layer="svg2" />
  <path
     style="fill:#decd87"
     inkscape:connector-curvature="0"
     id="svg_100"
     d="m 438.71915,179.3144 48.18793,-29.948 -68.72197,-18.32073 C 360.79069,39.204655 243.66326,87.099333 204.51431,174.44776 157.28473,279.73094 22.009714,318.13772 22.009714,318.13772 c 96.278216,104.2739 183.110946,123.1052 241.027006,118.94901 57.94641,-4.18186 214.338,-45.6642 181.78309,-230.79497 -1.69314,-9.62642 -3.74911,-18.58589 -6.10066,-26.97736 z" />
  <g
     id="svg_101"
     style="fill:#1c241f"
     transform="matrix(0.32814082,0,0,0.29881202,13.508235,32.538172)">
    <path
       style="fill:#1c241f"
       inkscape:connector-curvature="0"
       id="svg_102"
       d="m 1233.2415,329.67041 c 24.9962,43.93231 46.2371,97.50812 62.5767,161.53546 l 146.8516,-100.22363 -209.4283,-61.31183 z" />
    <path
       style="fill:#1c241f"
       inkscape:connector-curvature="0"
       id="svg_103"
       d="m 999.79016,718.71588 c 0,0 -489.89172,-101.01178 -546.05731,171.56976 -56.15888,272.54846 396.13916,430.73256 546.05731,-171.56976 z" />
    <path
       style="fill:#1c241f"
       inkscape:connector-curvature="0"
       id="svg_104"
       d="m 1094.0663,322.09338 c 3.2587,29.22858 -11.7894,54.97998 -33.7125,57.52991 -22.0027,2.46387 -42.5216,-19.27374 -45.7804,-48.45599 -3.3448,-29.22858 11.7166,-54.97995 33.7193,-57.52991 22.0092,-2.3844 42.4287,19.23401 45.7736,48.45599 z" />
  </g>
</svg>
